<svg xmlns="http://www.w3.org/2000/svg" viewBox="0 0 24 24" fill="none" stroke="black" stroke-width="1.8" stroke-linecap="round" stroke-linejoin="round"><circle cx="12" cy="12" r="3"/><path d="M19.4 15a1.7 1.7 0 0 0 .34 1.88l.06.06-2.83 2.83-.06-.06A1.7 1.7 0 0 0 15 19.4a1.7 1.7 0 0 0-1 .6 1.7 1.7 0 0 0-.4 1V21H9.6v-.08a1.7 1.7 0 0 0-.4-1 1.7 1.7 0 0 0-1-.6 1.7 1.7 0 0 0-1.88.34l-.06.06-2.83-2.83.06-.06A1.7 1.7 0 0 0 4.6 15a1.7 1.7 0 0 0-.6-1 1.7 1.7 0 0 0-1-.4H3V9.6h.08a1.7 1.7 0 0 0 1-.4 1.7 1.7 0 0 0 .6-1 1.7 1.7 0 0 0-.34-1.88l-.06-.06 2.83-2.83.06.06A1.7 1.7 0 0 0 9 4.6a1.7 1.7 0 0 0 1-.6 1.7 1.7 0 0 0 .4-1V3h4v.08a1.7 1.7 0 0 0 .4 1 1.7 1.7 0 0 0 1 .6 1.7 1.7 0 0 0 1.88-.34l.06-.06 2.83 2.83-.06.06A1.7 1.7 0 0 0 19.4 9c.2.36.54.7 1 .9.3.13.65.2 1 .2H21v4h-.08c-.35 0-.7.07-1 .2-.46.2-.8.54-1 .9Z"/></svg>